<svg width="24" height="24" viewBox="0 0 24 24" fill="none" xmlns="http://www.w3.org/2000/svg">
<path fill-rule="evenodd" clip-rule="evenodd" d="M12.7077 4.25827C13.833 3.1325 15.3595 2.5 16.9513 2.5C18.543 2.5 20.0695 3.13247 21.1948 4.25819C22.3205 5.38347 22.9531 6.91012 22.9531 8.50183C22.9531 10.0936 22.3206 11.6201 21.1948 12.7454L12.3548 21.5854C12.1596 21.7806 11.843 21.7806 11.6477 21.5854L2.80774 12.7454C0.464091 10.4017 0.464091 6.60192 2.80774 4.25827C5.15139 1.91462 8.9512 1.91462 11.2948 4.25827L12.0013 4.96472L12.7077 4.25827ZM16.9513 3.5C15.6248 3.5 14.3527 4.02711 13.4149 4.9653L12.3548 6.02538C12.2611 6.11915 12.1339 6.17183 12.0013 6.17183C11.8687 6.17183 11.7415 6.11915 11.6477 6.02538L10.5877 4.96538C8.63461 3.01225 5.46797 3.01225 3.51485 4.96538C1.56172 6.9185 1.56172 10.0851 3.51485 12.0383L12.0013 20.5247L20.4877 12.0383C21.4259 11.1005 21.9531 9.82831 21.9531 8.50183C21.9531 7.17534 21.426 5.90321 20.4878 4.96546C19.5501 4.02727 18.2778 3.5 16.9513 3.5Z" fill="#D80000"/>
<path d="M13.4149 4.9653C14.3527 4.02711 15.6248 3.5 16.9513 3.5C18.2778 3.5 19.5501 4.02727 20.4878 4.96546C21.426 5.90321 21.9531 7.17534 21.9531 8.50183C21.9531 9.82831 21.4259 11.1005 20.4877 12.0383L12.0013 20.5247L3.51485 12.0383C1.56172 10.0851 1.56172 6.9185 3.51485 4.96538C5.46797 3.01225 8.63461 3.01225 10.5877 4.96538L11.6477 6.02538C11.7415 6.11915 11.8687 6.17183 12.0013 6.17183C12.1339 6.17183 12.2611 6.11915 12.3548 6.02538L13.4149 4.9653Z" fill="#D80000"/>
</svg>
